<?xml version="1.0" ?><svg id="template" viewBox="0 0 32 32" xmlns="http://www.w3.org/2000/svg"><title/><path d="M1.9,15.542a3.352,3.352,0,0,0,3.015,2.4h.022a6.284,6.284,0,0,0,2.387,1.731.345.345,0,0,0,.147.032.354.354,0,0,0,.345-.434c-.284-1.226-.8-4.73.229-5.66l0,0c.051.045,5.033,4.507,4.752,9.912a5.041,5.041,0,0,0-.482.378,4.817,4.817,0,0,0-5.166,2.724.355.355,0,0,0,.168.472.353.353,0,0,0,.472-.167,4.1,4.1,0,0,1,4.569-2.3.357.357,0,0,0,.341-.108,3.675,3.675,0,0,1,.687-.543l0,0a7.056,7.056,0,0,1,5.243-.749c4.639.993,5.694,3.652,5.7,3.679A.354.354,0,0,0,25,26.662c-.045-.123-1.17-3.045-6.227-4.128a10.5,10.5,0,0,0-1.413-.172.334.334,0,0,0,.019-.094c0-7.907,2.873-11.337,3.6-12.076,3.588,1.769,1.7,6.419,1.62,6.62a.354.354,0,0,0,.535.424c2.066-1.508,3.274-3.017,3.634-4.5a1.412,1.412,0,0,0,.183.025,2.261,2.261,0,0,0,1.742-1.075,3.482,3.482,0,0,0,.086-4A4.9,4.9,0,0,0,23,5.938a4.921,4.921,0,0,0-5.171-4.292,3.523,3.523,0,0,0-3.61,2.518.257.257,0,0,0,0,.048,3.2,3.2,0,0,0-.316.126,3.289,3.289,0,0,0-1.673,2.54,3.81,3.81,0,0,0-2.293-.045,5.891,5.891,0,0,0-3.1,2.839,3.214,3.214,0,0,0-4.21-.379c-1.529,1.231-.815,3.852-.785,3.963a.35.35,0,0,0,.109.159A3.667,3.667,0,0,0,1.9,15.542Zm14.773,6.726a.363.363,0,0,0,.02.1,7.362,7.362,0,0,0-3.179.734c.013-4.96-3.839-8.923-4.788-9.819,2.808-.887,5.076,2.941,5.1,2.982a.355.355,0,0,0,.66-.153,9.1,9.1,0,0,0-.066-2.047.34.34,0,0,0,.291-.161c.028-.048,2.721-4.543,5.542-3.978C19.206,11.085,16.674,14.674,16.674,22.268Zm-2.456-17.3c1.984-.99,5.448.935,5.483.955a.354.354,0,0,0,.348-.617c-.132-.075-2.807-1.558-5.033-1.287a2.816,2.816,0,0,1,2.807-1.67,4.25,4.25,0,0,1,4.524,4.084.355.355,0,0,0,.506.311A4.283,4.283,0,0,1,28.2,8.091a2.744,2.744,0,0,1-.081,3.185,1.488,1.488,0,0,1-1.242.757c0-.1.022-.2.02-.292a4.971,4.971,0,0,0-2.582-3.935.354.354,0,1,0-.5.5,1.2,1.2,0,0,0,.136.1,4.3,4.3,0,0,1,2.239,3.346c.026,1.344-.844,2.761-2.589,4.222.428-1.755.745-5.114-2.538-6.542-2.793-1.213-5.4,1.857-6.462,3.352-.3-2.016-.007-3.447.864-4.259,1.386-1.29,3.857-.608,3.882-.6a.355.355,0,0,0,.2-.682c-.118-.033-2.877-.8-4.558.763a3.224,3.224,0,0,0-.388.436,3.814,3.814,0,0,0-1.022-.962,6.064,6.064,0,0,0-.677-.35A2.684,2.684,0,0,1,14.218,4.973ZM3.066,9.846c1.713-1.367,3.53.571,3.606.654a.354.354,0,0,0,.586-.1A5.652,5.652,0,0,1,10.146,7.51a3.608,3.608,0,0,1,3.05.573A3.224,3.224,0,0,1,14.2,9.13a6.352,6.352,0,0,0-.366,3.18,3.526,3.526,0,0,0-.865-1.021c-1.823-1.436-4.529-.6-4.643-.56a.355.355,0,0,0-.23.445.352.352,0,0,0,.445.23c.024-.008,2.458-.764,3.989.441a3.961,3.961,0,0,1,1.27,3.124c-1.251-1.6-3.479-3.351-5.887-2.125-1.638.834-1.22,4.3-.937,5.866a3.537,3.537,0,0,1-2.02-2.359C4.672,14.636,6.367,13,6.384,12.988a.354.354,0,0,0-.487-.515c-.082.077-1.984,1.9-1.638,3.991a3.1,3.1,0,0,0,.2.67A2.458,2.458,0,0,1,2.59,15.375a2.714,2.714,0,0,1,.271-2.229A4.014,4.014,0,0,1,5.3,11.717a.354.354,0,0,0-.108-.7,4.825,4.825,0,0,0-2.764,1.549A2.971,2.971,0,0,1,3.066,9.846Z"/><path d="M30,29.646A3.665,3.665,0,0,1,26.866,27.5a.26.26,0,0,0-.029-.042.343.343,0,0,0-.047-.066,95.131,95.131,0,0,0-.109-.075h-.007a.313.313,0,0,0-.044-.01.348.348,0,0,0-.228.012h0c-.008,0-.013.011-.021.015a.249.249,0,0,0-.128.121.285.285,0,0,0-.034.049,3.651,3.651,0,0,1-3.1,2.147A3.667,3.667,0,0,1,19.979,27.5a.491.491,0,0,0-.789,0,3.651,3.651,0,0,1-3.1,2.147A3.665,3.665,0,0,1,12.953,27.5a.3.3,0,0,0-.029-.041.288.288,0,0,0-.047-.067.39.39,0,0,0-.059-.041.339.339,0,0,0-.05-.034l-.007,0c-.014,0-.029,0-.044-.009a.351.351,0,0,0-.229.012h0c-.008,0-.012.01-.02.014a.366.366,0,0,0-.09.063.392.392,0,0,0-.039.058.293.293,0,0,0-.034.05,3.651,3.651,0,0,1-3.1,2.147A3.665,3.665,0,0,1,6.066,27.5a.348.348,0,0,0-.411-.193.349.349,0,0,0-.418.2,3.648,3.648,0,0,1-3.1,2.147.354.354,0,1,0,0,.708,4.141,4.141,0,0,0,3.521-2.135A4.2,4.2,0,0,0,9.2,30.354a4.088,4.088,0,0,0,3.433-1.995,4.143,4.143,0,0,0,3.454,1.995,4.127,4.127,0,0,0,3.5-2.1,4.184,4.184,0,0,0,3.524,2.1,4.088,4.088,0,0,0,3.433-1.995A4.143,4.143,0,0,0,30,30.354a.354.354,0,1,0,0-.708Z"/></svg>